<svg height="512" viewBox="0 0 56 44" width="512" xmlns="http://www.w3.org/2000/svg"><g id="Page-1" fill="none" fill-rule="evenodd"><g id="001---Landline-Phone" fill="rgb(0,0,0)" fill-rule="nonzero" transform="translate(-1)"><path id="Shape" d="m29 18c-4.9705627 0-9 4.0294373-9 9s4.0294373 9 9 9 9-4.0294373 9-9c-.006061-4.9680501-4.0319499-8.993939-9-9zm0 12c-1.6568542 0-3-1.3431458-3-3s1.3431458-3 3-3 3 1.3431458 3 3-1.3431458 3-3 3z"/><circle id="Oval" cx="29" cy="27" r="1"/><path id="Shape" d="m56.633 8.9c-3.357-2.679-12.77-8.9-27.633-8.9s-24.276 6.221-27.633 8.9c-.32250266.26134181-.44818609.6958474-.315 1.089l3.311 8.943c.15318574.5044085.66976984.805022 1.184.689l9.678-2.234c.4549933-.1050643.7766996-.5110369.775-.978v-4.47c.0035289-.9555328.4584709-1.8531811 1.227-2.421 3.4466522-2.40250801 7.5732833-3.63562516 11.773-3.518 4.1992477-.11756043 8.3254417 1.11518035 11.772 3.517.7690637.5679231 1.2243934 1.4659756 1.228 2.422v4.47c.000167.4654679.3214673.8692698.775.974l9.678 2.234c.5024136.1155274 1.0103174-.1698167 1.173-.659l3.332-9c.1196533-.38594415-.0093147-.8057846-.325-1.058z"/><path id="Shape" d="m44.625 19.863-2.3-.53c-1.363853-.3103495-2.3299058-1.5252907-2.325-2.924v-4.47c.0004014-.3221918-.1544593-.6248401-.416-.813-3.1023636-2.14821455-6.8123197-3.24395554-10.584-3.126-3.7719643-.11774584-7.4821737.97796646-10.585 3.126-.2611625.1883761-.4156329.4909891-.415.813v4.47c.0049058 1.3987093-.961147 2.6136505-2.325 2.924l-2.3.53-10.219 16.181c-.10117478.1605296-.15522742.3462489-.156.536v6.42c0 .5522847.44771525 1 1 1h50c.5522847 0 1-.4477153 1-1v-6.42c-.0011059-.1912375-.0558472-.3783281-.158-.54zm-15.625 18.137c-6.0751322 0-11-4.9248678-11-11s4.9248678-11 11-11 11 4.9248678 11 11c-.0071635 6.0721626-4.9278374 10.9928365-11 11z"/></g></g></svg>